<svg width="100" height="120" viewBox="0 0 100 120" fill="none" xmlns="http://www.w3.org/2000/svg">
<path d="M50 120L27.4833 90H72.5167L50 120Z" fill="#C2C2C2"/>
<path d="M100 50C100 77.6142 77.6142 100 50 100C22.3858 100 0 77.6142 0 50C0 22.3858 22.3858 0 50 0C77.6142 0 100 22.3858 100 50Z" fill="#C2C2C2"/>
<path d="M90 50C90 72.0914 72.0914 90 50 90C27.9086 90 10 72.0914 10 50C10 27.9086 27.9086 10 50 10C72.0914 10 90 27.9086 90 50Z" fill="white"/>
<path fill-rule="evenodd" clip-rule="evenodd" d="M50 25C62.5 25 70 40.625 70 53.125C70 65.625 61.25 75 50 75C38.75 75 30 65.625 30 53.125C30 40.625 37.5 25 50 25ZM50 58.75C48.9645 58.75 48.125 59.5895 48.125 60.625C48.125 61.6605 48.9645 62.5 50 62.5C51.0355 62.5 51.875 61.6605 51.875 60.625C51.875 59.5895 51.0355 58.75 50 58.75ZM50 37.5C45.8579 37.5 42.5 40.8579 42.5 45V46.25H45V45C45 42.2386 47.2386 40 50 40C52.7614 40 55 42.2386 55 45C55 46.7922 54.4352 47.6381 52.5391 49.249C49.7341 51.6319 48.75 53.1575 48.75 56.25H51.25C51.25 54.1212 51.7484 53.2007 54.1572 51.1543C56.5591 49.1138 57.5 47.7057 57.5 45C57.5 40.8579 54.1421 37.5 50 37.5Z" fill="#6F6F6F"/>
</svg>
